<svg xmlns="http://www.w3.org/2000/svg" xmlns:xlink="http://www.w3.org/1999/xlink" version="1.1" x="0px" y="0px" viewBox="0 0 90 112.5" enable-background="new 0 0 90 90" xml:space="preserve"><g><path d="M70.1,37.8c0.8-4.8-0.6-14.2-8.8-26.9L45.5,15c-0.9,15.1,2.5,24,5.5,27.8c3,3.8,11.2,7.4,12,10.6l3.9,14.9   c0.1,0.5-0.2,0.9-0.6,1.1L63.8,70c-0.5,0.1-0.7,0.6-0.6,1.1l0.1,0.2l10.1-2.7l-0.1-0.2c-0.1-0.5-0.6-0.7-1.1-0.6l-2.5,0.7   c-0.5,0.1-0.9-0.2-1.1-0.6l-3.9-14.9C64,49.7,69.3,42.5,70.1,37.8z M60.6,12.8c0,0,2.7,4,3.6,6.7c0,0-3.5-6.2-6.4-6L60.6,12.8z    M62.9,49.3c-1.2-1-2.8-2-4.5-3.1c-2.3-1.5-4-2.4-5.9-4.6c-0.7-0.7-1.8-2.5-2.9-5.5c-0.4-2.6,3.1-5.6,6.3-4.2   c3.2,1.4,8.4,4.1,12-1.2c0.7,3.5,0.5,5.8,0.3,6.9c-0.3,1.9-1.6,4.4-2.9,6.9C64.3,46.1,63.4,47.8,62.9,49.3z"/><path d="M38.9,50.6c3-3.8,6.4-12.7,5.4-27.8l-15.8-4.1c-8.2,12.8-9.4,22.2-8.7,27c0.8,4.8,6.1,11.9,5.3,15.1l0,0l-3.8,14.9   c-0.1,0.5-0.6,0.7-1.1,0.6l-2.5-0.6c-0.5-0.1-0.9,0.2-1.1,0.6l-0.1,0.2l10.2,2.6l0.1-0.2c0.1-0.5-0.2-0.9-0.6-1.1l-2.5-0.6   c-0.5-0.1-0.7-0.6-0.6-1.1l3.8-14.9C27.8,58,35.9,54.4,38.9,50.6z M42.8,24.2c0,0,0.4,4.8-0.1,7.6c0,0-0.1-7.1-2.7-8.3L42.8,24.2z    M27,57.2c-0.6-1.5-1.5-3.1-2.4-4.9c-1.3-2.5-2.7-5-3-6.9c-0.2-1-0.4-3.4,0.3-6.9c3.7,5.3,8.8,2.5,12,1.2c3.2-1.4,6.7,1.6,6.3,4.2   c-1.1,3-2.2,4.8-2.9,5.6c-1.9,2.1-3.6,3.1-5.9,4.6C29.8,55.1,28.3,56.1,27,57.2z"/></g><text x="0" y="105" fill="#000000" font-size="5px" font-weight="bold" font-family="'Helvetica Neue', Helvetica, Arial-Unicode, Arial, Sans-serif">Created by Tommy Lau</text><text x="0" y="110" fill="#000000" font-size="5px" font-weight="bold" font-family="'Helvetica Neue', Helvetica, Arial-Unicode, Arial, Sans-serif">from the Noun Project</text></svg>